/* XPM */
static char *a3f27f2420c24bb6a2a3c0e7fe194c8e2loVpNQUIXdHrHOt[] = {
/* columns rows colors chars-per-pixel */
"64 64 255 2 ",
"   c None",
".  c #020305",
"X  c #040B06",
"o  c #0B0B05",
"O  c #01040B",
"+  c #040B0B",
"@  c #0B0C0B",
"#  c #0B0704",
"$  c #140C06",
"%  c #06120B",
"&  c #0C150C",
"*  c #0E190E",
"=  c #0C1307",
"-  c #12140C",
";  c #1A160C",
":  c #131B0E",
">  c #1B1C0E",
",  c #151307",
"<  c #000514",
"1  c #010B14",
"2  c #000C1A",
"3  c #0A0E12",
"4  c #021514",
"5  c #0B1313",
"6  c #011916",
"7  c #0C1B14",
"8  c #02131C",
"9  c #021D1A",
"0  c #0A1C1A",
"q  c #0E1619",
"w  c #121413",
"e  c #141B11",
"r  c #1B1E12",
"t  c #1C1E18",
"y  c #221B0A",
"u  c #231E14",
"i  c #03221D",
"p  c #0C211B",
"a  c #1C2213",
"s  c #18271A",
"d  c #1D220E",
"f  c #25230D",
"g  c #2A260C",
"h  c #32290E",
"j  c #242414",
"k  c #2A2513",
"l  c #2C2B14",
"z  c #2C2B1A",
"x  c #252818",
"c  c #332D15",
"v  c #322D19",
"b  c #392C14",
"n  c #2B3319",
"m  c #353315",
"M  c #3B3415",
"N  c #34321A",
"B  c #3C341B",
"V  c #3A3B19",
"C  c #39320F",
"Z  c #011A21",
"A  c #032622",
"S  c #032B23",
"D  c #0A2D23",
"F  c #012B29",
"G  c #132C22",
"H  c #1A2E21",
"J  c #033127",
"K  c #0A3226",
"L  c #04352A",
"P  c #0A3429",
"I  c #053A2B",
"U  c #0B3C2C",
"Y  c #143527",
"T  c #0A3D33",
"R  c #393823",
"E  c #2E3022",
"W  c #49390D",
"Q  c #433A13",
"!  c #41361B",
"~  c #443B1C",
"^  c #4B3D1C",
"/  c #483816",
"(  c #4F391A",
")  c #4B3D23",
"_  c #443C23",
"`  c #533E23",
"'  c #0B412F",
"]  c #0B4432",
"[  c #0B4B35",
"{  c #064331",
"}  c #0D5439",
"|  c #134933",
" . c #3B4429",
".. c #28512C",
"X. c #4C411C",
"o. c #4B4415",
"O. c #53461C",
"+. c #5D4C1D",
"@. c #584717",
"#. c #5D5419",
"$. c #53440F",
"%. c #634A1A",
"&. c #695817",
"*. c #745B19",
"=. c #6B5B0F",
"-. c #78651B",
";. c #726116",
":. c #4D4222",
">. c #474521",
",. c #544422",
"<. c #5D4C21",
"1. c #584B27",
"2. c #5A5325",
"3. c #5F5632",
"4. c #634F23",
"5. c #635223",
"6. c #6A5323",
"7. c #6C5B24",
"8. c #685828",
"9. c #785A23",
"0. c #6D5E33",
"q. c #6B6225",
"w. c #696029",
"e. c #786527",
"r. c #766A32",
"t. c #125E42",
"y. c #9A730B",
"u. c #876919",
"i. c #8B721C",
"p. c #9C7B1B",
"a. c #977618",
"s. c #916A0D",
"d. c #A57A0C",
"f. c #A57B18",
"g. c #B37F0B",
"h. c #866A26",
"j. c #946E23",
"k. c #897328",
"l. c #977828",
"z. c #877736",
"x. c #967D37",
"c. c #A17B24",
"v. c #A47B28",
"b. c #835716",
"n. c #94851C",
"m. c #BA860A",
"M. c #AA8417",
"N. c #B48313",
"B. c #B88B18",
"V. c #BA9219",
"C. c #AD8C16",
"Z. c #9A8528",
"A. c #988434",
"S. c #8F8236",
"D. c #A3822B",
"F. c #AA8826",
"G. c #B48B25",
"H. c #B68C26",
"J. c #AC952A",
"K. c #B8972A",
"L. c #AB9635",
"P. c #B89933",
"I. c #A78B33",
"U. c #BDA32A",
"Y. c #BAA634",
"T. c #BFA91D",
"R. c #C48D09",
"E. c #C9940C",
"W. c #D89B0B",
"Q. c #C89815",
"!. c #D39A14",
"~. c #C38F19",
"^. c #D9A60D",
"/. c #CAA51A",
"(. c #D8A717",
"). c #D8B31C",
"_. c #D9B213",
"`. c #E4AB0B",
"'. c #E7A70A",
"]. c #F2AD07",
"[. c #ECB30D",
"{. c #E7B50D",
"}. c #F4BB0C",
"|. c #FCBB0B",
" X c #FAB607",
".X c #E5AC12",
"XX c #E8B817",
"oX c #F6BB16",
"OX c #C29B26",
"+X c #C59A30",
"@X c #CAA626",
"#X c #CCAB2A",
"$X c #C8A529",
"%X c #D4A625",
"&X c #CAB227",
"*X c #D5B32C",
"=X c #D9B629",
"-X c #C6A934",
";X c #CAB335",
":X c #DCBC33",
">X c #D5B937",
",X c #D2AF37",
"<X c #E6BB28",
"1X c #E2B62A",
"2X c #FCC30B",
"3X c #F9C70C",
"4X c #FED40B",
"5X c #FFDB0C",
"6X c #E8C418",
"7X c #F7C716",
"8X c #FDD314",
"9X c #F7D819",
"0X c #E8C10E",
"qX c #FFE50F",
"wX c #FDE818",
"eX c #FFF61B",
"rX c #DAC429",
"tX c #DDC53B",
"yX c #DBC638",
"uX c #CFC439",
"iX c #E8C72A",
"pX c #F4CC26",
"aX c #EAD62A",
"sX c #F8D728",
"dX c #E2CB3B",
"fX c #E7C835",
"gX c #F1CF34",
"hX c #EAD53B",
"jX c #F4D836",
"kX c #FAE928",
"lX c #FFF72A",
"zX c #F7E539",
"xX c #FFFE33",
"cX c #FFFE3E",
"vX c #FDF335",
"bX c #EFE334",
"nX c #BCB042",
"mX c #B49A4F",
"MX c #CAB052",
"NX c #DAC545",
"BX c #DBCA54",
"VX c #ECDA45",
"CX c #F4DD45",
"ZX c #E4CF4E",
"AX c #F7E846",
"SX c #FFFD43",
"DX c #FCF54B",
"FX c #FEF956",
"GX c #F1E751",
"HX c #DAC167",
"JX c #E8DC64",
"KX c #FFFF6A",
"LX c #FFFE66",
"PX c #F8ED71",
"IX c #F0E683",
/* pixels */
"                                                        MXMXBXZXBXBXMXmX                                                        ",
"                                              GXSXSXDXhXNX-XL.L.L.Y.MXVXFXFXLXPXMX                                              ",
"                                        CXxXbXJ.2.u # # # . o f y , . . $ u 8.nXGXFXPX                                          ",
"                                    vXkXD.x . - f z $ f r.>XS.f o A.GXJX) h M # # N L.FXKXHX                                    ",
"                                vXwXq.O - a a > 7.lXVXz . zX@ @ yXzX# , FX3.o JXx.h $ @ z.FXKX                                  ",
"                            fXeXe.. + R = a r r + iXsXlXz.U.c m xXk.f @ tXVX> q.L.FXBX1.b . x.FXPX                              ",
"                          lXrX@ @ w P.xX_ r . j @ =X; Y.lXlXX.l xXq.j O bXhXo j Z.SXO.KX> 4.y - ZXKX                            ",
"                        eXe.. a ~ lXf @ X.& zXdX@ n.2.X ~ xX7.o Y.hX@ q.cXq.k + DXyX: b o JXMXh # z.FXIX                        ",
"                    #XwXz 5 e < wX! s e a + & + % >XzXx a ; m x o +.yX;XB e l ~ SX7.v N ~ SXY.KX0.f c FXIX                      ",
"                  *X5Xw 7 7 7 5 8XU.# a O -X& a a @ O & X + @ - & o . X x l r BXFXt z O VXSXv o KX- V o DXPX                    ",
"                $X5X@ p 0 0 7 1 ).2XA.x jXh a a + 5 2.Y.hXfX-XY.>XCXCX-Xr.z , o > ~ 1.L.cXq.JX1.j N z R # DXPX                  ",
"                qXw p 0 0 9 0 p O @X5X9Xc 7 O >.rXvXn.f # r @.r.z.X.@ =.kXxXVXx.j d @ nXDX3 . l n x x n E o cXPX                ",
"              5Xv 0 0 9 9 0 i 9 p + + O O >.pXeXu.. >.I.A.L.K.B.K.=XP.S.w &.vX*XcXMXj % ^ KXPXa x s s s s E u xXHX              ",
"            8X;.4 0 9 p 6 P 0 9 i p p 5 iXQ.pX> $ x.S.h.!.<XfXdXhXhXfXdXiXk.; kXK.&XSXz.& @ u n s Y Y s H H s +.SX              ",
"          (./.O 0 9 9 4 T 6 i 9 i 8 O.eXu.pXO r k.-Xh.iX>XyXzXAXAXAXVXjXNX:X:X; bXaXA.aXJX> H H G G U U G G G 5 Y.FX            ",
"          4X5 i 9 9 4 ] 4 9 9 H < p.9Xe.wXO N v A.,.1X=XyXVXDXDXDXAXAXVXNXdX,X:X. kXkX$XU.DXB K G Y K U U D G Y O kXMX          ",
"        XX&.4 A i 4 [ 4 9 i i 2 C.6Xl.qXt x M ^ :.I.=X-X>XNXDXFXDXAXVXhXdXdXtX,Xj.m kXsXaXl.cX_ K P P K ] U K D Y ~ SX          ",
"        {.< 9 9 A t.4 i i i Z i.6Xl.4X-.j v _ l._ ~.+X;X:XhXAXDXDXGXNXtX:XtXfX:Xl.B &XpXsXzXk.cXE U P P S } L ] D 1 rXNX        ",
"      {.O.9 i 9 J A ] L 9 A Q 4Xk.3X6X3 c 1.5.! 8.%X#X$XfXzXAXAXAXhXtXtXyXdXtX,XI.k.f lXsXsXbXD.DX7 U K L ] t.i P Y l xX        ",
"      .X< 9 9 6 ] 9 9 A | 0 5Xh.2X3Xo.! 5.m ^ 4.4.-X*X*XyXdXAXAXAXdX>X=X>XfXNXhXK.h.o kXsXsXsX:X&XNXS [ ] F L [ J K < iX;X      ",
"    !.&.9 i 9 [ 6 9  .9 8 E.M.0X{.8X@ ^ ,.~ O.O.) -X@X$X:X>XhXDXDXVXiX,X<XhXVXhX:X6.^ n.sXsXsXkXD.kXr.L L L K } S S U o.lX      ",
"    |.w i i S S G i 9 S V 0XC.`.}.6Xu g ^ <.M X.) K.#XK.;XyXzXZ.%.F.,X%X>XhXzXgXgXe.O.j kXsXsXsXlXk.kX8 I L L F } S K < kX      ",
"    B.< i 9 ] 9 i i i 2 _.i.|.}.Q.V.R > k.O.B k M D.i.e.z.Z.@.R 8.^ @.e.zX$Xb.%.; B 9.3 ).sXkXsX=X#XiX-.I | L J [ F J Z C.&X    ",
"  Q.$.I 9 L i i i i S m _.N.^.`.5XN j 8.j.k.r N : . O . o X O : = a x > - z N o.R 1.@.) 8.J.L.Z.sXkXl.kX8 J L L S } A } Q kX    ",
"  [.r i U } 4 i i G 8 R.a.].`.}.=.k c S.6.j . + = ^ + j rXC rX. & & & % % . % . ;.. l X X + o . aX9XK.kXV I U J F t.[ J 3 eX    ",
"  `.2 i S L U U i i q |.a.W.'.V.B ^ q.M 9.6.^ ) v.OXb + #.n.e.u.X & & & l iXo + /.k aXo & & : . kX9X9XV.C.I ] [ [ J ] J 8 6X    ",
"  m.2 i U 9 i i P { $.E.N.^.3Xx v h.,.8.m 6.^ ) H.>X+XO X n.%.&X#.% & . K.AX; & X =Xf aXO & # &X9X7XwXD.9XF I F J S } S A C./.  ",
"  ;.9 6 ' i i p i 8 d.a.'.R.a.z <.*.S.6.~ ,.c 1.K.#X>Xc.+ + % - & & X ( 1XCX/ X & ; J.. * & @ kX9X7X(.F.eX0 L J J J [ S J ;.6X  ",
"y.$.9 i J i i i i 2 W.i.W.'.;.z +.P.k.X.f B N 9.K.$X#XfX$ X o + + O b iXV.AXa.,.. X . % & O xX7X7X6X8X/.9XV L J J J I I J o.9X  ",
"N.V 9 P i 9 G i i 1 ].a.W.|.l g k.4.l.v 7.& : %XK.*X-X#XiX:XhXgXgX:X!.F.H.jX:X,.j.@.^ a @ T.9X7X8XXX7XXX).#.U P F P S ] J l qX  ",
"R.n 9 U 9 i i G i 7 ].f.W.@.! 2.~ K.I.x e e.M =XG.@XP.#X>X>XfXdX#X+X9.>XK.:XK.z @XjXh.> 5 &X7X7X8X).3X6X/.-.F S F F S [ F a 5X  ",
"R.n 9 U 9 i i 9 i 7 ].N.W.1 & B e.z.^ j & u.K.~.OXOXOX-X*X:XiXiX;X*Xh.y u / k - D.=X7.z a + 9X}.3X(.7X3XQ.-.F F F S S [ S a wX  ",
"R.n J ] 9 i i i i q '.N.m.3 k / 5.^ c k r B <XOXOX#XL.@XU.=X:X-XK.zXzXjXzX^ ! ! u.h.5.l ^ ^ j 8X3X(.3X}.Q.-.F F S D F } { s 5X  ",
"B.n 9 [ P P S i 9 5 '.N.!.5 j O.Q e.k k B % $.Q H.$XK.$XP.$Xl.%XdX@X@X>XH.P.k.,.l.e.8.- l B w XX3X(.2XXX(.#.{ ' ] ' L { i a 4X  ",
"d.X.9 I 9 9 i S P 6 '.a.^.1 r X.m B X.a B % v l H.#XH.K.#Xh.=X/ W j.k.u.u.G.! ,.D.r.4.+ : m t Q.}.!.Q.V.0XV J A i S A ] i n 9X  ",
"s.=.6 L 9 i 9 9 9 2 E.f.@.r :.X.5.c ^ 5.r : O.+.l.G.P.F.K.*X$XfXfXgXsXpXOXj.v.k k 8.5.: f a @ (.3X(.}.C.8Xs S D i A i { i o.0X  ",
"  y.1 K 9 9 G 9 9 6 y.M.r k 8.l Q :.! ,.r & o l.4.H.#Xj.@XU.,X#XK.;X:XfXc.%.^ 6.k.2.v a k B : 8X{.^.}.p.3X2 S i i i i { 9 u.Q.  ",
"  E.< J 6 9 9 9 0 i $.B.+ v l 5.j > N c : % i.9.%.J.D.$X9.F.$X#X#XF.v.j.&.( ^ %.5.2.> & ^ x p.}.(.{.|.p.R.Z A i i i i ' 2 R.    ",
"  '.4 D 4 9 9 9 9 9 5 }.w - l l > : k > & + j.gX@.j.I.K.K.%.j.L.#X:XrXgX<XsXF.l.^ <.X ! : :.p.}.~.`.Q.^.$.A i i i i 9 I < 3X    ",
"  '.V A 4 9 9 9 i A 8 m.&.* x : : B l - e B C.@XyX9.l.D.K.L.c.G.v.+X*X:X*X$Xc./ 8.X j a l ,.}.{.~.].i.4X8 U A 9 i i 9 L t 8X    ",
"  d.u.8 6 4 i i 6 6 9 M .X+ a > j m r > % 9.-.pXiX;X@.F.h.K.9.*.e.h.D.K.j.G.<.,.= a & ! ! > XX!.'.^.f.d.9 i A J A 6 i S =._.    ",
"    W.< A i 4 0 6 6 9 < '.X.& e & B - : +.^ 9.aXiXfX;X` F.` c.c.h.b O.b v M l k e > N B <.E [.N.'.u.4Xw A i 9 i 9 D S 2 ^.      ",
"    '.n F 6 4 6 6 6 9 9 Q [.O v B e x % D.j OX9.kXpXXX:X! l.( h.h.:.k c m B j % a & l c t a.B.R.E.M.y.A i 9 i 9 9 4 T t 4X      ",
"    d.M.8 4 9 9 4 6 6 6 < m.k.r ,.~ - v W p.@.B.e.zX6X6XVXb 6.@.:.,.! l - r v e a & B / u.E.m.W.7.}.< i A 9 i 6 i i A a.Q.      ",
"      ].q 9 4 4 9 i 4 9 6 @ |.R +.7.e.8.o.I.> F.B.*.jX).pXjX%.@.4.B ! a : j Q j + a.*.%.!.d.g.u.[.M i i i 9 i i 9 i 8 2X        ",
"      m.a.1 4 4 4 9 9 % r a b }.E 7.e.q.c +.F.h H.Q.1.zXV.<XiXu.O ~ k j & l h N * u Q.W.N.d.s.B.a.8 9 9 i K 6 6 6 9 u.^.        ",
"        ].q 6 4 9 + : a M v e *..X_ 5.h.5.^ %Xq.i.f.V.) kXV./.K.Q.%.k - k.i.& z e X.. Q N.f.i.R.< i A i 9 9 i 6 9 q |.          ",
"        N.M.< 4 X B m v B O.! @ u.`.3.7.e.%.l *.l h.M.f.^ uX=Xa.D.#X@XB.f.2.+ ~ + l.+ d O B !.< A i 9 9 i 6 9 6 2 M.!.          ",
"          '.V & N M ^ >.! ^ <.,.+ -.}.N 7.e.o F.a.Q %.M.c.%.5.sXOXc.p.K.h.h - v o.a.O e M r O 9 i 9 9 i 6 6 6 9 N |.            ",
"            XX+ B c a %.5.X.<.<.l 5 $.2Xk.1.h.. *Xa.q.%.f.p.p.^ u.M.G.M.h.x = V F.Q e : N B l u + 9 i 9 9 6 9 < .X              ",
"            ~.OX# ^ B + ^ e.l 2.:.j u - ^.{.e.x . a.-.X.W l.f.a.h.*.v 6.&.. q.V.C.+ r ! % ! l a k > 4 i 6 6 < B.(.              ",
"              '.k.@ c B . +._ V ! l v v O Q `.XXe.4 =.G.P.&.k @.+.M b M -.5.>.r.I.+ % j ~ % B v e d j % 9 1 e.|.                ",
"                '.w.@ k r - ,.: ) N : j & e O Q E.2XQ.-.<.>.Z.e.5.#.x.7.-.(.}.s.; a a * l a > N e : r r + >. X                  ",
"                  ].2.@ a % N & c v e v : 7 e p . - @.d.^.}..XXXXX}..XE.s.h O % : : a * j x & j r * e % V  X                    ",
"                    ].2.@ & r 7 j l : a : & * O F.O.4 + . O o w 5 + O + N r + e * : e & e j & a : & % R  X                      ",
"                      ].e.O * * : N j * 7 & r pX Xm 7 5 @XsX@Xe e * N 8X/.5XZ.O : * : : % e e & r . 2.2X                        ",
"                        '.K.O * : l j & * & % #.}.1 O XX^.O p.8X+ 1 3X&.O M. XV & & * * % r & * O l.2X                          ",
"                          !.XXz + a > * & & O E.Q.O N  X*.7 m  X#.k  XO.7 u  XM.+ * & * % e X s (.[.                            ",
"                            f. XZ.& = * & & + ].-.% V  XQ 7 M  X#.e  Xa.+ @  XM.+ * & & % O h.2X~.                              ",
"                                E.oXz.& + e %X].i.+ 3 |.;.. u.|.e O Q.|.x j 4Xm 5 * % O 2.XX`.                                  ",
"                                    W.oXZ.E . + o.5 % o.8Xp.2X@.5 7 O f.7XXXh O . s k.6X[.                                      ",
"                                        R.|.1Xx. .e . . - C - + % % % . . + E e.%X8X^.                                          ",
"                                              R.[.oX1XK.x.e.0.3.0.e.k.H.%X7X2XW.                                                ",
"                                                        y.N.m.m.m.m.d.                                                          "
};
