/* XPM */
static char *a97d29b42c554c76f762dc809d327d4eaUbgbSlSKKYGAW6O[] = {
/* columns rows colors chars-per-pixel */
"32 32 235 2 ",
"   c None",
".  c #010104",
"X  c #02040C",
"o  c #050C0D",
"O  c #0A0D0C",
"+  c #060905",
"@  c #100F0C",
"#  c #0B140D",
"$  c #0D180E",
"%  c #06130E",
"&  c #13140C",
"*  c #131A0E",
"=  c #1B1B0E",
"-  c #010511",
";  c #040B12",
":  c #010B1A",
">  c #0C0F10",
",  c #110F11",
"<  c #011415",
"1  c #0D1312",
"2  c #021916",
"3  c #02131C",
"4  c #0C151A",
"5  c #031C1A",
"6  c #0A1C1A",
"7  c #081817",
"8  c #111312",
"9  c #151A11",
"0  c #1A1D12",
"q  c #141818",
"w  c #221D0D",
"e  c #201E12",
"r  c #1B220F",
"t  c #03221D",
"y  c #0A261F",
"u  c #1D2617",
"i  c #29280F",
"p  c #222512",
"a  c #292513",
"s  c #2C2915",
"d  c #272719",
"f  c #332D14",
"g  c #332C1A",
"h  c #312613",
"j  c #2B321B",
"k  c #343116",
"l  c #3A3515",
"z  c #3F3917",
"x  c #35321A",
"c  c #3C341A",
"v  c #3F3D19",
"b  c #3A350E",
"n  c #021D23",
"m  c #001120",
"M  c #032621",
"N  c #032B24",
"B  c #022D29",
"V  c #0D2B22",
"C  c #142C23",
"Z  c #033126",
"A  c #093127",
"S  c #053429",
"D  c #093529",
"F  c #093B2D",
"G  c #1C3121",
"H  c #503D09",
"J  c #443413",
"K  c #443B14",
"L  c #41351B",
"P  c #443A1B",
"I  c #4B3E1C",
"U  c #4C3F13",
"Y  c #412C18",
"T  c #453821",
"R  c #06402D",
"E  c #0A4532",
"W  c #0B4933",
"Q  c #074631",
"!  c #52410E",
"~  c #4C441B",
"^  c #4C4418",
"/  c #554C16",
"(  c #52451C",
")  c #594C1B",
"_  c #5B4A1A",
"`  c #5C5019",
"'  c #5B5514",
"]  c #6B540D",
"[  c #6A5414",
"{  c #6C5619",
"}  c #665619",
"|  c #775A1C",
" . c #725514",
".. c #78641A",
"X. c #7F711A",
"o. c #4D4220",
"O. c #534521",
"+. c #574922",
"@. c #594E25",
"#. c #4F5020",
"$. c #5C5329",
"%. c #5F5829",
"&. c #634D24",
"*. c #655122",
"=. c #6B5B23",
"-. c #695525",
";. c #745C24",
":. c #705F29",
">. c #765823",
",. c #75632C",
"<. c #786627",
"1. c #6B612D",
"2. c #8E700E",
"3. c #98730C",
"4. c #886A1A",
"5. c #86761B",
"6. c #997716",
"7. c #906B13",
"8. c #AB7C0F",
"9. c #A77D17",
"0. c #8A6B24",
"q. c #806222",
"w. c #916E23",
"e. c #8D7726",
"r. c #9C7D2A",
"t. c #947627",
"y. c #927F3A",
"u. c #A57F25",
"i. c #94831C",
"p. c #8C831C",
"a. c #AA8617",
"s. c #BB8B11",
"d. c #B58817",
"f. c #AF9219",
"g. c #BC9211",
"h. c #BF9D1D",
"j. c #BB9A17",
"k. c #B7870F",
"l. c #9A8A24",
"z. c #94812D",
"x. c #8D8336",
"c. c #9B8A36",
"v. c #AF8E29",
"b. c #A98726",
"n. c #B48F23",
"m. c #AF9728",
"M. c #B59222",
"N. c #BA9322",
"B. c #BC9C26",
"V. c #B7952C",
"C. c #BD9C2B",
"Z. c #BA962C",
"A. c #A69E39",
"S. c #BEA02B",
"D. c #C88E0D",
"F. c #CC940D",
"G. c #C6900F",
"H. c #C48E10",
"J. c #CA9212",
"K. c #C49A15",
"L. c #CB9915",
"P. c #C7981C",
"I. c #D29C11",
"U. c #D1950D",
"Y. c #C9A70E",
"T. c #D7A50C",
"R. c #C8A61A",
"E. c #D5A412",
"W. c #D5A915",
"Q. c #DBAC15",
"!. c #D7A81A",
"~. c #DCB01A",
"^. c #EEAF08",
"/. c #EEB50C",
"(. c #E6B80E",
"). c #ECB314",
"_. c #ECBC18",
"`. c #E5BC13",
"'. c #F4B914",
"]. c #F4B610",
"[. c #E4AA10",
"{. c #C29A2B",
"}. c #C19923",
"|. c #C4A32B",
" X c #C8A728",
".X c #D5AD26",
"XX c #CAB827",
"oX c #D7B62C",
"OX c #C5B836",
"+X c #DBBD33",
"@X c #D7BE39",
"#X c #D5B435",
"$X c #C6AC34",
"%X c #E1BA29",
"&X c #DDC81C",
"*X c #FAC70D",
"=X c #EDC21B",
"-X c #E4C11A",
";X c #F7CC17",
":X c #ECD81D",
">X c #FAD616",
",X c #FFE91F",
"<X c #DCCB2B",
"1X c #DCC33B",
"2X c #DCC037",
"3X c #DFD237",
"4X c #CEC438",
"5X c #F2CF2F",
"6X c #EAD827",
"7X c #F7D624",
"8X c #E4C332",
"9X c #E2CB3B",
"0X c #E9CC34",
"qX c #E7D434",
"wX c #F5D834",
"eX c #EAC929",
"rX c #FDEB28",
"tX c #FBF02E",
"yX c #F9ED3F",
"uX c #FFF13E",
"iX c #EFE939",
"pX c #C9B54D",
"aX c #DAC540",
"sX c #E9DA45",
"dX c #F2DC51",
"fX c #E9DA54",
"gX c #F8E747",
"hX c #FEF44C",
"jX c #F7F14F",
"kX c #F5E354",
"lX c #EFE946",
"zX c #E7DE73",
"xX c #FFFF6D",
"cX c #EEED78",
"vX c #E5E068",
/* pixels */
"                        OXkXkXdXdXkXfX                          ",
"                  9XqX) O . ( s & <.. h A.xX                    ",
"              <X Xo 9 0 l.qX^ O uX. jXx.pXP ( xX                ",
"            rX9 } n.0 m.b o tX& iXo gX. hX=.$.h A.cX            ",
"          :X- : &X1 x o ~ ~ X * . / o %.OX9 fX( x.K zX          ",
"        :X; 6 7 j.XX{ ; e.S...,.z. X4Xo.& c.l.,.u j h vX        ",
"      ;X: 6 5 5 7 - i.:X@ y.{.%X8X#X~ XXwX1.) %.G u G `         ",
"      q 5 t t y : =Xh., c..XaXhXgXlX9XZ.XX XsX2 C F V C OX      ",
"    f.5 N t t : -X>X1 _ :.$X2XhXgXsX1X2XY rXoXyX5 A W A : lX    ",
"  W.: 2 D S n '.(.f O.( r. XqXhXsX+X8X1Xb.5.7XXX3XF E W D p.    ",
"  g.5 D 5 V 2.K.*X0 P ~ ,.|.@XyX@X+X9XgX{.= rX7XC.#.D D Z 3 <X  ",
"  j 5 M t m I./.Q.d w.s f i s 9 l T e.J c c <X6X7X7XB S W B 6X  ",
"k.3 E N t [ s.*Xd @.*.9 0.. b.0.# # J . ..} + . rX XG F E S 5.  ",
"k.3 Z 5 M F.G.) } ,.P x .Xr.& i & . uX+ i 5.o X.;X!.p.Z N E j   ",
"9.5 t y 3 J.^.= e.*.z <.|.oX[ ..=. XoX>.w & = ,X=X;XW.S A Q 6   ",
"3.N 5 t 3 H.7.x t.K L n.|.S.+X0X|.>.| a 5XO.e >X_.;X~.N M R 3   ",
"3.E M t 3 F.U P *.p 1 M.C.B.|.C.0XwXV.&.t.I ~ .._.*XE.B F W n   ",
"8.N 2 t n G.K I c +.0 o.{.v.V.N.B.M.4.c :.s r ! ).W.g.M t Z 4   ",
"s.n 2 5 5 U.8 +.x c # >.0.V.v.oXV.Z.{ I :.# x K.E.K.' M y N k   ",
"  3 2 2 t ] > p 0 p # .X>.v.v.u. X0X8Xt.I p d /.T.L.n t t N 6.  ",
"  v 5 5 < : a.0 f $ k B.5X&.0.w._ q.{ L # f g Q.T.F.5 t N n ].  ",
"  I.5 2 2 5 7.4 c O 6.9.qX7X*.-.*.s = & & x 4.D.d.4 5 5 2 C     ",
"    4 < 5 < o [.O.<.` U 9.+XeX..g a # s e J.8.6. .5 y t 2 j.    ",
"    L.< # a I ; Q.-.+.e.{ 7.XXd.N.| b.0 I X [ 8.n t 5 5 q       ",
"      l c ( o.-.X ).@.= a.} 6.<.}.9._ o }.O c # 5 t 7 : ).      ",
"      Q.; x P k c q 3.P.1 a./ 4.| I l :./ p * x r 1 2 6.        ",
"        ).X $ s c p $ ; ] L.a.}.M.P.s.H # 0 s p * 0 _           ",
"          '.X 9 f * # ~ R.X ` q ; z R.; * * 0 $ # }             ",
"            Q.f * * # i [ 6.a T.; Y., (.% $ $ X f.              ",
"                h.1 o E.0 a.1 Y.; *XX `.o X z _.                ",
"                  J..Xc O X d.! % O ] 8 4.=X                    ",
"                        d.L.j.N.P.P.L.                          "
};
