/* XPM */
static char *_86d42c9c5344a9fad94ccdf242dc9eeYs7RbGpdLBU9vo9b[] = {
/* columns rows colors chars-per-pixel */
"16 16 200 2 ",
"   c None",
".  c #020706",
"X  c #0A120B",
"o  c #08100C",
"O  c #0B170F",
"+  c #0F140E",
"@  c #020D18",
"#  c #0C1616",
"$  c #071813",
"%  c #0F1C10",
"&  c #0A1B15",
"*  c #0A1916",
"=  c #04111B",
"-  c #03151D",
";  c #01161E",
":  c #011B19",
">  c #041B18",
",  c #041D19",
"<  c #081F1A",
"1  c #111B14",
"2  c #191C10",
"3  c #181F10",
"4  c #191F10",
"5  c #1B1E11",
"6  c #1A1F11",
"7  c #211E0F",
"8  c #211D11",
"9  c #1F210F",
"0  c #02201B",
"q  c #01221D",
"w  c #04201C",
"e  c #05211C",
"r  c #05231F",
"t  c #03251F",
"y  c #182212",
"u  c #11241C",
"i  c #13251F",
"p  c #28280F",
"a  c #222110",
"s  c #222311",
"d  c #202012",
"f  c #252414",
"g  c #252615",
"h  c #262615",
"j  c #262715",
"k  c #252516",
"l  c #292511",
"z  c #2A2512",
"x  c #252915",
"c  c #272817",
"v  c #292812",
"b  c #2F2911",
"n  c #2E2A14",
"m  c #222819",
"M  c #352D16",
"N  c #263119",
"B  c #29381D",
"V  c #353016",
"C  c #363117",
"Z  c #3B3616",
"A  c #31331C",
"S  c #31321E",
"D  c #012522",
"F  c #052A21",
"G  c #052B23",
"H  c #042F25",
"J  c #0B2A26",
"K  c #043025",
"L  c #043027",
"P  c #073327",
"I  c #07372A",
"U  c #09382B",
"Y  c #083A2E",
"T  c #113425",
"R  c #40340E",
"E  c #443C13",
"W  c #453816",
"Q  c #423D16",
"!  c #463D14",
"~  c #473C16",
"^  c #4B3C14",
"/  c #423718",
"(  c #45381B",
")  c #443A1A",
"_  c #4B3D1C",
"`  c #07412F",
"'  c #0C4935",
"]  c #3B4720",
"[  c #374921",
"{  c #4F411C",
"}  c #4D421D",
"|  c #4E421C",
" . c #544413",
".. c #554A12",
"X. c #5B4914",
"o. c #52491B",
"O. c #47501F",
"+. c #73570E",
"@. c #624E12",
"#. c #604F1F",
"$. c #655114",
"%. c #655315",
"&. c #67561A",
"*. c #60531E",
"=. c #60541D",
"-. c #68571C",
";. c #685B1F",
":. c #715A10",
">. c #725A12",
",. c #765D12",
"<. c #715C17",
"1. c #70561D",
"2. c #72591C",
"3. c #7C671C",
"4. c #7F691D",
"5. c #594722",
"6. c #584B20",
"7. c #5B5028",
"8. c #695725",
"9. c #6D5F21",
"0. c #7B5E20",
"q. c #716C24",
"w. c #7C6820",
"e. c #7C6E23",
"r. c #8D730C",
"t. c #8F710E",
"y. c #806217",
"u. c #856718",
"i. c #906B1B",
"p. c #8E7914",
"a. c #8D7A1E",
"s. c #977317",
"d. c #947E1F",
"f. c #AE7E15",
"g. c #8B6D23",
"h. c #8D6E21",
"j. c #8A7223",
"k. c #8F7725",
"l. c #947427",
"z. c #9E7D21",
"x. c #9C7B27",
"c. c #95792B",
"v. c #977B2C",
"b. c #A47D20",
"n. c #8E8217",
"m. c #9A8115",
"M. c #99811A",
"N. c #97891C",
"B. c #B1800E",
"V. c #AA8318",
"C. c #B48611",
"Z. c #918122",
"A. c #928828",
"S. c #A88527",
"D. c #AC8625",
"F. c #A98B28",
"G. c #B08E2A",
"H. c #B18F2A",
"J. c #AC9229",
"K. c #B49226",
"L. c #ACA03A",
"P. c #C5940D",
"I. c #CB9610",
"U. c #CC9B10",
"Y. c #DAA217",
"T. c #D4AD16",
"R. c #C9B71A",
"E. c #F0B30A",
"W. c #E4AB11",
"Q. c #E5B012",
"!. c #C29D29",
"~. c #C2AC23",
"^. c #C7A028",
"/. c #C4A52C",
"(. c #C8A429",
"). c #DEBA24",
"_. c #D3BD29",
"`. c #D5B934",
"'. c #DFBE35",
"]. c #E4B020",
"[. c #DFC21C",
"{. c #EFC215",
"}. c #F0C915",
"|. c #FFCF1C",
" X c #F1D31B",
".X c #DFC638",
"XX c #E9C026",
"oX c #E8C52A",
"OX c #E2CB28",
"+X c #E0C437",
"@X c #E9CC32",
"#X c #EDDB3B",
"$X c #F3D939",
"%X c #F0DB3D",
"&X c #FAE828",
"*X c #A9A146",
"=X c #D0C446",
"-X c #E7D140",
";X c #F5E342",
":X c #EEEA5D",
/* pixels */
"          $XA.=.;.*X            ",
"      OXZ + ~.Z.E q.=X|         ",
"    N.* n.o.! 9.*.A h L.3 :X    ",
"  }.< r m M.v.@X%Xk.#XA T u     ",
"  = I u T.| ^.;X-X.X-._.J ' O.  ",
"I.G t W.<.| F.J.g.'.5.&X).U P   ",
"$.P B E.#._ G.a.X e.d..  XY ` R.",
"x r :.,.c.W /.+XD.`.j.[.{.] P m.",
"N G :.d ) d !.G.K.l.8.h Q.[ H p.",
"$., x h d ^ S.x.(.h.n &.U.- q P.",
"B.> : ..3 1.oX0.) M h s.C.0 D   ",
"  # $ z 7.w.b.XX/ !  .f.- r y.  ",
"  Y.V 6.v z.3.i.2.9 p V * @     ",
"    V.3 h % R @.+.8 3 3 o       ",
"      |.1 y z 7 t.t.O b         ",
"          ].4.X.Q u.            "
};
